<svg xmlns="http://www.w3.org/2000/svg" width="216.197" height="58.37" viewBox="0 0 216.197 58.37"><g id="Group_118" data-name="Group 118" transform="translate(-55.727 -60.945)"><path id="Path_1" data-name="Path 1" d="M56.878,99.253q-1.744-1.325-.845-2.674L58.2,93.313q1.068-1.6,3.123-.168a27.18,27.18,0,0,0,4.124,2.265,12.741,12.741,0,0,0,5.361,1.169,15.928,15.928,0,0,0,3.8-.453,4.717,4.717,0,0,0,2.785-1.742,5.027,5.027,0,0,0,.958-3.069,5.481,5.481,0,0,0-.422-2.223,3.59,3.59,0,0,0-1.378-1.576,12.673,12.673,0,0,0-1.97-1.044,35.864,35.864,0,0,0-4.462-1.524,50.8,50.8,0,0,1-5.306-1.821A15.865,15.865,0,0,1,60.537,80.7a11.673,11.673,0,0,1-3.012-3.473,10.8,10.8,0,0,1-1.069-5.22,9.612,9.612,0,0,1,2.534-6.7,11.367,11.367,0,0,1,5.824-3.573,28.619,28.619,0,0,1,6.643-.79,24.723,24.723,0,0,1,6.852,1.017,14.454,14.454,0,0,1,5.334,2.532q1.772,1.489.874,2.7l-2.28,3.067q-1.155,1.577-3.1.255a27.286,27.286,0,0,0-3.391-1.887,10.19,10.19,0,0,0-4.49-1.039,15.2,15.2,0,0,0-3.052.281,4.769,4.769,0,0,0-2.463,1.349,3.6,3.6,0,0,0-1.071,2.649,3.7,3.7,0,0,0,.79,2.46,5.331,5.331,0,0,0,1.743,1.411,14.783,14.783,0,0,0,1.944.772q3.04.982,5.432,1.732A40.53,40.53,0,0,1,79,79.891,18.467,18.467,0,0,1,83.3,82.42a9.442,9.442,0,0,1,2.463,3.465,12.867,12.867,0,0,1,.971,5.234,10.207,10.207,0,0,1-2.872,7.442,13.281,13.281,0,0,1-6.374,3.8,28.794,28.794,0,0,1-6.825.858,27.656,27.656,0,0,1-7.964-.948A18.778,18.778,0,0,1,56.878,99.253Z" transform="translate(0 0)" fill="#022335"></path><path id="Path_2" data-name="Path 2" d="M125.409,86.271V64.258q0-1.546,1.97-1.545h4.279q1.968,0,1.969,1.545V85.987q0,7.6,2.237,9.5a7.665,7.665,0,0,0,10.1,0q2.238-1.9,2.236-9.5V64.258q0-1.546,1.97-1.545h4.278q1.971,0,1.97,1.545V86.271q0,9.844-4.165,13.8t-11.342,3.958q-7.176,0-11.342-3.958T125.409,86.271Z" transform="translate(-31.85 -0.808)" fill="#022335"></path><path id="Path_3" data-name="Path 3" d="M201.729,103.07q-1.969,0-1.97-2.111V64.824q0-2.111,1.97-2.111h8.163q1.63,0,2.335,2.249l7.627,24.686a24.421,24.421,0,0,1,.7,2.629q.2,1.029.338,2.437h.169q.143-1.408.339-2.437a24.445,24.445,0,0,1,.7-2.629l7.626-24.686q.7-2.25,2.336-2.249h8.162q1.969,0,1.97,2.111v36.136q0,2.112-1.97,2.111h-4.278q-1.969,0-1.969-2.111V77.711c0-1.125.044-2.25.141-3.376h-.2l-8.133,26.458q-.705,2.275-2.422,2.278h-4.783q-1.719,0-2.419-2.278l-8.135-26.458h-.2q.143,1.689.142,3.376v23.249q0,2.112-1.969,2.111Z" transform="translate(-65.834 -0.808)" fill="#022335"></path><path id="Path_4" data-name="Path 4" d="M297.126,103.07q-1.971,0-1.969-2.111V64.824q0-2.111,1.969-2.111h8.161q1.633,0,2.337,2.249l7.628,24.686a24.364,24.364,0,0,1,.7,2.629q.2,1.029.338,2.437h.17q.141-1.408.338-2.437a24.684,24.684,0,0,1,.7-2.629l7.628-24.686q.7-2.25,2.336-2.249h8.163q1.969,0,1.97,2.111v36.136q0,2.112-1.97,2.111h-4.279q-1.969,0-1.969-2.111V77.711q0-1.687.141-3.376h-.2l-8.135,26.458q-.7,2.275-2.422,2.278h-4.784q-1.714,0-2.42-2.278L303.43,74.335h-.195q.138,1.689.14,3.376v23.249q0,2.112-1.97,2.111Z" transform="translate(-109.439 -0.808)" fill="#022335"></path><text id="GENERAL_CONTRACTORS" data-name="GENERAL CONTRACTORS" transform="translate(71.231 116.315)" fill="#022335" font-size="10" font-family="SegoeUI, Segoe UI"><tspan x="0" y="0">GENERAL CONTRACTORS</tspan></text><g id="Group_1" data-name="Group 1" transform="translate(234.73 61.905)"><path id="Path_5" data-name="Path 5" d="M422.436,101.216,408.645,64.993q-.871-2.284-2.646-2.28h-3.941q-1.772,0-2.644,2.28l-13.79,36.222q-.706,1.852,1.191,1.855h4.191a2.564,2.564,0,0,0,2.474-1.943l2.3-6.025-.016-.005,4.217-11.032,2.45-6.437,1.516-4.418h.168l1.513,4.418,3.408,8.949h-7.469L398.9,93.557h12.8l2.884,7.571a2.566,2.566,0,0,0,2.476,1.943h4.187Q423.14,103.07,422.436,101.216Z" transform="translate(-385.432 -62.713)" fill="#022335"></path></g></g></svg>