<svg xmlns="http://www.w3.org/2000/svg" width="201.146" height="39.334" viewBox="0 0 201.146 39.334"><g id="Group_117" data-name="Group 117" transform="translate(-55.727 -60.945)"><path id="Path_1" data-name="Path 1" d="M56.8,96.586q-1.622-1.233-.786-2.488l2.017-3.039q.994-1.493,2.905-.157a25.287,25.287,0,0,0,3.837,2.107A11.854,11.854,0,0,0,69.76,94.1a14.819,14.819,0,0,0,3.535-.422,4.389,4.389,0,0,0,2.591-1.621,4.677,4.677,0,0,0,.892-2.855,5.1,5.1,0,0,0-.393-2.068A3.34,3.34,0,0,0,75.1,85.666a11.792,11.792,0,0,0-1.833-.971,33.367,33.367,0,0,0-4.151-1.418,47.257,47.257,0,0,1-4.937-1.695A14.76,14.76,0,0,1,60.2,79.325a10.861,10.861,0,0,1-2.8-3.231,10.052,10.052,0,0,1-.995-4.856A8.943,8.943,0,0,1,58.763,65a10.576,10.576,0,0,1,5.418-3.325,26.627,26.627,0,0,1,6.181-.735,23,23,0,0,1,6.375.946A13.448,13.448,0,0,1,81.7,64.246q1.649,1.386.813,2.512L80.39,69.613q-1.074,1.468-2.88.237a25.386,25.386,0,0,0-3.155-1.755,9.48,9.48,0,0,0-4.178-.967,14.144,14.144,0,0,0-2.84.262,4.437,4.437,0,0,0-2.292,1.255,3.345,3.345,0,0,0-1,2.464,3.445,3.445,0,0,0,.735,2.289,4.96,4.96,0,0,0,1.621,1.313,13.753,13.753,0,0,0,1.808.718q2.828.914,5.054,1.612a37.706,37.706,0,0,1,4.11,1.532,17.182,17.182,0,0,1,4.006,2.353,8.785,8.785,0,0,1,2.292,3.224,11.972,11.972,0,0,1,.9,4.87,9.5,9.5,0,0,1-2.672,6.924,12.356,12.356,0,0,1-5.93,3.538,26.79,26.79,0,0,1-6.35.8,25.73,25.73,0,0,1-7.409-.882A17.47,17.47,0,0,1,56.8,96.586Z" transform="translate(0 0)" fill="#eb4942"></path><path id="Path_2" data-name="Path 2" d="M125.409,84.631V64.15q0-1.438,1.833-1.437h3.981q1.831,0,1.832,1.437V84.367q0,7.069,2.082,8.839a7.131,7.131,0,0,0,9.4,0q2.082-1.768,2.081-8.839V64.15q0-1.438,1.833-1.437h3.98q1.834,0,1.833,1.437V84.631q0,9.159-3.875,12.841t-10.552,3.682q-6.677,0-10.552-3.682T125.409,84.631Z" transform="translate(-34.484 -0.875)" fill="#eb4942"></path><path id="Path_3" data-name="Path 3" d="M201.592,100.261q-1.832,0-1.833-1.964V64.677q0-1.964,1.833-1.964h7.595q1.517,0,2.172,2.093l7.1,22.967a22.728,22.728,0,0,1,.654,2.446q.183.957.314,2.267h.157q.133-1.31.315-2.267a22.743,22.743,0,0,1,.655-2.446l7.1-22.967q.654-2.093,2.174-2.093h7.594q1.832,0,1.833,1.964V98.3q0,1.965-1.833,1.964h-3.98q-1.832,0-1.832-1.964V76.666c0-1.047.041-2.093.131-3.141h-.184l-7.567,24.616q-.656,2.117-2.253,2.119h-4.45q-1.6,0-2.251-2.119l-7.569-24.616h-.184q.133,1.571.132,3.141V98.3q0,1.965-1.832,1.964Z" transform="translate(-71.278 -0.875)" fill="#eb4942"></path><path id="Path_4" data-name="Path 4" d="M296.989,100.261q-1.834,0-1.832-1.964V64.677q0-1.964,1.832-1.964h7.593q1.52,0,2.174,2.093l7.1,22.967a22.676,22.676,0,0,1,.653,2.446q.185.957.314,2.267h.158q.131-1.31.314-2.267a22.963,22.963,0,0,1,.654-2.446l7.1-22.967q.654-2.093,2.173-2.093h7.594q1.832,0,1.833,1.964V98.3q0,1.965-1.833,1.964h-3.981Q327,100.261,327,98.3V76.666q0-1.57.131-3.141h-.182l-7.568,24.616q-.655,2.117-2.253,2.119h-4.451q-1.595,0-2.251-2.119l-7.568-24.616h-.181q.129,1.571.13,3.141V98.3q0,1.965-1.833,1.964Z" transform="translate(-118.489 -0.875)" fill="#eb4942"></path><g id="Group_1" data-name="Group 1" transform="translate(222.268 61.838)"><path id="Path_5" data-name="Path 5" d="M419.86,98.535l-12.831-33.7q-.811-2.125-2.462-2.122H400.9q-1.649,0-2.46,2.122l-12.83,33.7q-.657,1.723,1.108,1.725h3.9a2.386,2.386,0,0,0,2.3-1.807l2.139-5.605-.015-.005,3.924-10.264,2.28-5.989,1.41-4.11h.157l1.407,4.11,3.171,8.326h-6.949l-2.482,6.493h11.905l2.684,7.044a2.387,2.387,0,0,0,2.3,1.807h3.9Q420.515,100.261,419.86,98.535Z" transform="translate(-385.432 -62.713)" fill="#eb4942"></path></g></g></svg>