<svg xmlns="http://www.w3.org/2000/svg" width="28.743" height="28.743" viewBox="0 0 28.743 28.743"><path id="Icon_awesome-check-circle" data-name="Icon awesome-check-circle" d="M29.305,14.934A14.371,14.371,0,1,1,14.934.563,14.371,14.371,0,0,1,29.305,14.934Zm-16.034,7.61L23.934,11.881a.927.927,0,0,0,0-1.311L22.623,9.258a.927.927,0,0,0-1.311,0l-8.7,8.7-4.06-4.06a.927.927,0,0,0-1.311,0L5.934,15.205a.927.927,0,0,0,0,1.311l6.027,6.027A.927.927,0,0,0,13.272,22.543Z" transform="translate(-0.563 -0.563)" fill="#fff"></path></svg>